<svg width="24" height="24" viewBox="0 0 24 24" fill="none" xmlns="http://www.w3.org/2000/svg">
<path d="M15.9606 10.8301H12.9006L12.1406 13.1201H14.4306C15.2706 13.1201 15.9606 13.8001 15.9606 14.6501C15.9606 15.4901 15.2806 16.1801 14.4306 16.1801H12.1406" stroke="#292D32" stroke-width="1.5" stroke-linecap="round" stroke-linejoin="round"/>
<path d="M9.53906 16.17V10.8301L8.03906 12.5001" stroke="#292D32" stroke-width="1.5" stroke-linecap="round" stroke-linejoin="round"/>
<path d="M10.0195 4.46997L11.9995 2" stroke="#292D32" stroke-width="1.5" stroke-linecap="round" stroke-linejoin="round"/>
<path d="M4.90936 7.80072C3.79936 9.28072 3.10938 11.1107 3.10938 13.1107C3.10938 18.0207 7.08939 22.0007 11.9994 22.0007C16.9094 22.0007 20.8894 18.0207 20.8894 13.1107C20.8894 8.20072 16.9094 4.2207 11.9994 4.2207C11.3194 4.2207 10.6594 4.31075 10.0194 4.46075" stroke="#292D32" stroke-width="1.5" stroke-linecap="round" stroke-linejoin="round"/>
</svg>
